<?xml version="1.0" encoding="UTF-8" standalone="no"?>
<!-- Generator: Adobe Illustrator 16.0.0, SVG Export Plug-In . SVG Version: 6.00 Build 0)  -->

<svg
   version="1.1"
   id="Capa_1"
   x="0px"
   y="0px"
   width="351.128px"
   height="351.128px"
   viewBox="0 0 351.128 351.128"
   style="enable-background:new 0 0 351.128 351.128;"
   xml:space="preserve"
   sodipodi:docname="quote.svg"
   inkscape:version="1.3 (0e150ed6c4, 2023-07-21)"
   xmlns:inkscape="http://www.inkscape.org/namespaces/inkscape"
   xmlns:sodipodi="http://sodipodi.sourceforge.net/DTD/sodipodi-0.dtd"
   xmlns="http://www.w3.org/2000/svg"
   xmlns:svg="http://www.w3.org/2000/svg"><defs
   id="defs41" /><sodipodi:namedview
   id="namedview39"
   pagecolor="#ffffff"
   bordercolor="#666666"
   borderopacity="1.0"
   inkscape:showpageshadow="2"
   inkscape:pageopacity="0.0"
   inkscape:pagecheckerboard="0"
   inkscape:deskcolor="#d1d1d1"
   showgrid="false"
   inkscape:zoom="2.2869154"
   inkscape:cx="144.95508"
   inkscape:cy="174.25218"
   inkscape:window-width="1920"
   inkscape:window-height="998"
   inkscape:window-x="0"
   inkscape:window-y="0"
   inkscape:window-maximized="1"
   inkscape:current-layer="Capa_1"
   showguides="false" />&#10;&#10;&#10;&#10;&#10;&#10;&#10;&#10;&#10;&#10;&#10;&#10;&#10;&#10;&#10;&#10;&#10;<path
   style="display:inline;opacity:0.8;fill:#e8f5ff;fill-rule:evenodd;stroke-width:0.581742;paint-order:stroke fill markers;fill-opacity:1"
   d="m 280.29021,311.47044 c -8.23142,-0.43255 -30.78283,-2.42313 -34.32571,-3.02988 -12.30564,-2.10747 -23.21212,-8.15202 -29.53464,-16.36861 -4.21232,-5.47423 -6.51744,-11.18278 -9.34832,-23.15076 -5.53452,-23.39806 -6.33925,-51.2348 -2.24377,-77.61547 0.44804,-2.88598 0.94164,-8.2972 1.09689,-12.02493 0.77816,-18.68361 5.39206,-35.69633 14.75329,-54.39939 9.86196,-19.70349 23.27979,-38.026341 40.38051,-55.141997 16.83789,-16.852611 29.6563,-24.99369 45.58153,-28.949213 5.86352,-1.456386 14.75404,-1.666537 19.20593,-0.453982 8.77931,2.391207 18.37823,10.480452 22.44376,18.913907 3.73178,7.741131 3.37031,15.348598 -1.18509,24.940963 -1.34697,2.83634 -1.93694,3.575698 -3.88567,4.869585 -2.07134,1.375289 -2.72676,1.562787 -6.65596,1.904085 -7.39886,0.642673 -13.75001,2.576816 -21.45104,6.532559 -21.46271,11.024643 -38.45044,31.943153 -41.19746,50.730123 -0.9785,6.69203 0.11982,11.67674 3.36913,15.29075 4.4616,4.96238 10.46533,6.86219 27.70239,8.7661 19.8712,2.19486 25.62289,4.06105 31.25066,10.13956 9.67796,10.45309 12.29125,28.95881 9.0038,63.7593 -2.21047,23.39978 -3.58096,32.31032 -6.00943,39.07171 -5.26574,14.66092 -14.00751,22.26081 -28.73803,24.98417 -7.17846,1.32714 -19.12505,1.81407 -30.21277,1.23142 z"
   id="path304" /><path
   style="display:inline;opacity:0.8;fill:#e8f5ff;fill-rule:evenodd;stroke-width:0.581742;paint-order:stroke fill markers;fill-opacity:1"
   d="M 78.27137,311.47044 C 70.039942,311.03789 47.488535,309.04731 43.945658,308.44056 26.599919,305.46993 13.384034,295.26972 8.5036583,281.08593 -0.08128285,256.13558 -2.1059872,220.19586 3.3034333,188.7788 3.828216,185.73094 4.1501295,181.80147 4.1531812,178.40625 4.1670895,162.93467 9.60884,142.95389 18.799682,124.62787 25.898286,110.47366 36.080087,95.45571 47.856581,81.769532 53.143659,75.625099 66.753764,62.140274 72.262014,57.58875 82.25729,49.329551 93.385751,43.545747 104.42484,40.872739 c 12.20319,-2.954883 21.81039,-1.423137 30.07925,4.795754 14.06711,10.579672 17.75648,23.070295 11.1174,37.638792 -1.83474,4.026091 -2.30958,4.619878 -4.91578,6.147214 -1.52234,0.892145 -2.88239,1.222901 -6.38283,1.552266 -14.35132,1.350347 -29.69506,9.357635 -42.779851,22.325125 -18.151573,17.98882 -25.18659,41.10535 -15.467367,50.82457 4.55047,4.55047 10.347654,6.21865 29.060658,8.36241 13.54257,1.55144 17.69105,2.47072 22.91594,5.07808 3.48952,1.74135 5.2405,3.19084 7.57695,6.27227 7.08686,9.34653 10.03019,24.32693 8.90164,45.30591 -0.82378,15.31367 -3.30238,39.23643 -4.86556,46.96102 -3.39647,16.78405 -11.04317,27.46834 -22.83573,31.90705 -7.96122,2.9966 -22.374167,4.27769 -38.55819,3.42724 z"
   id="path306" /></svg>
